<?xml version="1.0" encoding="utf-8"?>
<!-- Generator: Adobe Illustrator 27.0.0, SVG Export Plug-In . SVG Version: 6.00 Build 0)  -->
<svg version="1.1" id="Ebene_2_00000128461871645670831180000008718529024563707272_"
	 xmlns="http://www.w3.org/2000/svg" xmlns:xlink="http://www.w3.org/1999/xlink" x="0px" y="0px" viewBox="0 0 1223 359"
	 style="enable-background:new 0 0 1223 359;" xml:space="preserve">
<style type="text/css">
	.st0{fill:#202123;}
</style>
<g id="Ebene_1-2">
	<g>
		<path class="st0" d="M165.2,79.5V155h-29.9V88.6c0-16-3.5-23.2-17.1-23.2c-12.8,0-21,8.2-21,24.2V155H67.6V88.6
			c0-16-3.2-23.2-16.9-23.2c-12.8,0-21,8.2-21,24.2V155H0V44.4h29.7v15.2h0.4c5.8-9.5,17.3-18.6,34-18.6c14.7,0,24.7,7.6,29,19.5
			h0.4c9.1-11,19.3-19.5,36.8-19.5C152.6,40.9,165.2,54.8,165.2,79.5L165.2,79.5z"/>
		<path class="st0" d="M251.9,44.4h29.7V155h-29.7v-15.1h-0.4c-5.8,9.5-16.9,18.4-36.4,18.4c-21,0-36.1-13.2-36.1-38.5V44.4h29.7
			v66.2c0,16,6.1,23.4,19.3,23.4c14.9,0,24-8.4,24-24.2L251.9,44.4L251.9,44.4z M194.3,14.9c0-8,5.4-14.9,14.9-14.9
			s14.9,6.9,14.9,14.9s-5.4,14.7-14.9,14.7S194.3,23,194.3,14.9z M234.1,14.9c0-8,5.4-14.9,14.9-14.9S264,6.9,264,14.9
			s-5.4,14.7-14.9,14.7S234.1,23,234.1,14.9z"/>
		<path class="st0" d="M398.2,79.5V155h-29.9V88.6c0-16-6.1-23.2-19-23.2c-15.1,0-24.2,8.2-24.2,24.2V155h-29.7V0.2H325v59.3h0.4
			c5.9-9.5,16.9-18.6,36.4-18.6C382.8,40.9,398.2,54.1,398.2,79.5z"/>
		<path class="st0" d="M411.9,155V0.2h29.7V155H411.9z"/>
		<path class="st0" d="M566.8,107.6h-81.6c0.2,16.5,11,28.1,27.3,28.1c14.9,0,21-8.2,23.2-14.5h30.1c-6.1,22.1-23.6,37.2-54.1,37.2
			c-35.5,0-56.3-24.5-56.3-58.9s20.4-58.9,56.3-58.9s55.2,22.3,55.2,60.6L566.8,107.6L566.8,107.6z M536.7,87.9
			c0-15.4-9.7-24.9-25.3-24.9c-14.7,0-24.9,9.3-26.2,24.9H536.7z"/>
		<path class="st0" d="M745.8,79.5V155h-29.9V88.6c0-16-3.5-23.2-17.1-23.2c-12.8,0-21,8.2-21,24.2V155h-29.7V88.6
			c0-16-3.2-23.2-16.9-23.2c-12.8,0-21,8.2-21,24.2V155h-29.7V44.4h29.7v15.2h0.4c5.8-9.5,17.3-18.6,34-18.6
			c14.7,0,24.7,7.6,29,19.5h0.4c9.1-11,19.3-19.5,36.8-19.5C733.2,40.9,745.8,54.8,745.8,79.5L745.8,79.5z"/>
		<path class="st0" d="M759.5,126.2c0-23.6,18.8-32,44-37c13.9-2.8,28.6-4.8,28.6-15.6c0-6.9-4.8-11.9-17.1-11.9
			c-14.9,0-21,5.6-22.1,18h-28.6c1.1-21.2,16-39,52-39c27.5,0,44.6,11.3,44.6,43.1v45.9c0,6.7,0.9,9.7,4.5,9.7c0.9,0,1.5,0,2.8-0.2
			v15.1c-5.8,1.1-11.7,1.7-16,1.7c-12.6,0-18-4.8-19.5-15.4h-0.4c-7.6,10.4-20.3,17.5-37,17.5C773.4,158.2,759.5,145.5,759.5,126.2
			L759.5,126.2z M832,110.8V99.2c-4.1,2.2-10.8,3.9-20.8,6.3c-15.4,3.2-21.2,8.7-21.2,18s5.6,13.6,16,13.6
			C821.8,137.1,832,126,832,110.8L832,110.8z"/>
		<path class="st0" d="M984.8,79.5V155h-29.9V88.6c0-16-6.1-23.2-19-23.2c-15.2,0-24.2,8.2-24.2,24.2V155h-29.7V44.4h29.7v15.2h0.4
			c5.8-9.5,16.9-18.6,36.4-18.6C969.4,40.9,984.8,54.1,984.8,79.5z"/>
		<path class="st0" d="M1101.4,79.5V155h-29.9V88.6c0-16-6.1-23.2-19.1-23.2c-15.2,0-24.2,8.2-24.2,24.2V155h-29.7V44.4h29.7v15.2
			h0.4c5.8-9.5,16.9-18.6,36.4-18.6C1086,40.9,1101.4,54.1,1101.4,79.5z"/>
		<path class="st0" d="M1155.6,155v-41.5h-40.2V86h40.2V44.5h27.5V86h39.9v27.5h-39.9V155L1155.6,155L1155.6,155z"/>
		<g>
			<path class="st0" d="M111.8,265.3c0,36.4-19.9,58.7-48.7,58.7c-16.7,0-27.9-8.2-32.9-15.1h-0.4V359H0.1V210.1h29.7v11.7h0.4
				c5-6.5,16.2-15.1,32.9-15.1C91.9,206.6,111.8,228.9,111.8,265.3L111.8,265.3z M81.1,265.3c0-21.6-8.9-35.7-25.3-35.7
				s-25.5,13-25.5,35.7s9.5,35.9,25.5,35.9S81.1,286.9,81.1,265.3z"/>
			<path class="st0" d="M125.6,265.6c0-34.6,21.9-59.1,58-59.1s57.6,23.8,57.6,58.7s-21.9,59.1-58,59.1S125.6,300.4,125.6,265.6z
				 M210.9,265.4c0-22.1-9.3-35.9-27.5-35.9s-27.5,13.9-27.5,35.9s9.3,36.1,27.5,36.1S210.9,287.4,210.9,265.4z"/>
			<path class="st0" d="M366.6,265.3c0,36.4-19.9,58.7-48.7,58.7c-16.7,0-27.9-8.2-32.9-15.1h-0.4V359h-29.7V210.1h29.7v11.7h0.4
				c5-6.5,16.2-15.1,32.9-15.1C346.7,206.6,366.6,228.9,366.6,265.3L366.6,265.3z M335.9,265.3c0-21.6-8.9-35.7-25.3-35.7
				s-25.5,13-25.5,35.7s9.5,35.9,25.5,35.9S335.9,286.9,335.9,265.3z"/>
			<path class="st0" d="M492.1,265.3c0,36.4-19.9,58.7-48.7,58.7c-16.7,0-27.9-8.2-32.9-15.1h-0.4V359h-29.7V210.1h29.7v11.7h0.4
				c5-6.5,16.2-15.1,32.9-15.1C472.2,206.6,492.1,228.9,492.1,265.3L492.1,265.3z M461.4,265.3c0-21.6-8.9-35.7-25.3-35.7
				s-25.5,13-25.5,35.7s9.5,35.9,25.5,35.9S461.4,286.9,461.4,265.3z"/>
		</g>
	</g>
</g>
</svg>
