<svg width="416" height="52" viewBox="0 0 416 52" fill="none" xmlns="http://www.w3.org/2000/svg">
<path d="M15.8005 39L7.12085 10.717H6.89893C7.21126 16.4706 7.36743 20.3091 7.36743 22.2324V39H0.537109V2.94971H10.9429L19.4746 30.5176H19.6226L28.6721 2.94971H39.0779V39H31.9517V21.9365C31.9517 21.131 31.9599 20.2022 31.9763 19.1501C32.0092 18.0981 32.1243 15.3035 32.3215 10.7664H32.0996L22.8035 39H15.8005ZM63.3268 39L62.3158 35.4739H61.9212C61.1157 36.7561 59.9732 37.7507 58.4938 38.4575C57.0143 39.1479 55.3293 39.4932 53.4388 39.4932C50.2004 39.4932 47.7592 38.6301 46.1153 36.9041C44.4715 35.1615 43.6495 32.6628 43.6495 29.408V11.4321H51.1703V27.5339C51.1703 29.523 51.5237 31.019 52.2306 32.0217C52.9374 33.0081 54.0635 33.5012 55.6087 33.5012C57.7129 33.5012 59.2335 32.8026 60.1705 31.4053C61.1075 29.9915 61.576 27.6572 61.576 24.4023V11.4321H69.0968V39H63.3268ZM47.8907 4.35522C47.8907 3.2867 48.1948 2.46476 48.8031 1.8894C49.4278 1.31405 50.2661 1.02637 51.3182 1.02637C52.4032 1.02637 53.2498 1.33049 53.858 1.93872C54.4827 2.54696 54.795 3.35246 54.795 4.35522C54.795 5.34155 54.4827 6.13883 53.858 6.74707C53.2333 7.33887 52.3867 7.63477 51.3182 7.63477C50.2661 7.63477 49.4278 7.34709 48.8031 6.77173C48.1948 6.19637 47.8907 5.39087 47.8907 4.35522ZM57.828 4.35522C57.828 3.20451 58.1568 2.36613 58.8143 1.84009C59.4883 1.29761 60.3185 1.02637 61.3048 1.02637C62.3733 1.02637 63.2199 1.32227 63.8446 1.91406C64.4857 2.50586 64.8063 3.31958 64.8063 4.35522C64.8063 5.35799 64.4857 6.15527 63.8446 6.74707C63.2035 7.33887 62.3569 7.63477 61.3048 7.63477C60.3185 7.63477 59.4883 7.37174 58.8143 6.8457C58.1568 6.30322 57.828 5.47306 57.828 4.35522ZM98.6472 39H91.1264V22.8982C91.1264 18.92 89.6469 16.9309 86.6879 16.9309C84.5838 16.9309 83.0632 17.646 82.1262 19.0762C81.1892 20.5063 80.7207 22.8242 80.7207 26.0298V39H73.1999V0.631836H80.7207V8.44849C80.7207 9.05672 80.6631 10.4869 80.548 12.739L80.3754 14.9583H80.77C82.4467 12.2623 85.1098 10.9143 88.7592 10.9143C91.9977 10.9143 94.4553 11.7856 96.132 13.5281C97.8088 15.2706 98.6472 17.7693 98.6472 21.0242V39ZM110.123 39H102.602V0.631836H110.123V39ZM125.668 16.2651C124.073 16.2651 122.824 16.7747 121.92 17.7939C121.015 18.7967 120.498 20.2269 120.366 22.0845H130.92C130.887 20.2269 130.402 18.7967 129.465 17.7939C128.528 16.7747 127.262 16.2651 125.668 16.2651ZM126.728 39.4932C122.289 39.4932 118.821 38.2685 116.322 35.8191C113.823 33.3697 112.574 29.9011 112.574 25.4133C112.574 20.794 113.725 17.2268 116.026 14.7117C118.344 12.1801 121.541 10.9143 125.618 10.9143C129.514 10.9143 132.547 12.0239 134.717 14.2432C136.887 16.4624 137.972 19.5282 137.972 23.4407V27.0901H120.194C120.276 29.2271 120.909 30.8957 122.092 32.0957C123.276 33.2957 124.936 33.8958 127.073 33.8958C128.733 33.8958 130.303 33.7231 131.783 33.3779C133.262 33.0327 134.808 32.482 136.419 31.7258V37.5452C135.103 38.2027 133.698 38.6877 132.202 39C130.706 39.3288 128.881 39.4932 126.728 39.4932ZM164.983 39H157.462V22.8982C157.462 20.9091 157.125 19.4214 156.451 18.4351C155.793 17.4323 154.75 16.9309 153.319 16.9309C151.396 16.9309 149.999 17.6378 149.127 19.0515C148.256 20.4653 147.821 22.7913 147.821 26.0298V39H140.3V11.4321H146.045L147.056 14.9583H147.475C148.215 13.6925 149.284 12.7061 150.681 11.9993C152.078 11.276 153.681 10.9143 155.489 10.9143C159.615 10.9143 162.41 12.2623 163.873 14.9583H164.539C165.279 13.676 166.364 12.6815 167.794 11.9746C169.24 11.2677 170.868 10.9143 172.676 10.9143C175.799 10.9143 178.158 11.7198 179.753 13.3308C181.364 14.9254 182.169 17.4898 182.169 21.0242V39H174.624V22.8982C174.624 20.9091 174.287 19.4214 173.613 18.4351C172.955 17.4323 171.912 16.9309 170.481 16.9309C168.64 16.9309 167.259 17.5885 166.339 18.9036C165.435 20.2187 164.983 22.3064 164.983 25.1667V39ZM203.632 39L202.177 35.252H201.98C200.714 36.8465 199.407 37.9561 198.059 38.5808C196.728 39.189 194.985 39.4932 192.832 39.4932C190.185 39.4932 188.097 38.737 186.568 37.2246C185.056 35.7122 184.3 33.5588 184.3 30.7642C184.3 27.8381 185.319 25.6846 187.358 24.3037C189.412 22.9064 192.503 22.1338 196.629 21.9858L201.413 21.8379V20.6296C201.413 17.835 199.983 16.4377 197.122 16.4377C194.919 16.4377 192.33 17.1035 189.355 18.4351L186.864 13.3555C190.037 11.6951 193.555 10.865 197.418 10.865C201.117 10.865 203.952 11.6705 205.925 13.2815C207.898 14.8925 208.884 17.3419 208.884 20.6296V39H203.632ZM201.413 26.2271L198.503 26.3257C196.317 26.3914 194.689 26.786 193.621 27.5093C192.552 28.2326 192.018 29.334 192.018 30.8135C192.018 32.9341 193.234 33.9944 195.667 33.9944C197.41 33.9944 198.799 33.493 199.835 32.4902C200.887 31.4875 201.413 30.1559 201.413 28.4956V26.2271ZM238.311 39H230.79V22.8982C230.79 20.9091 230.437 19.4214 229.73 18.4351C229.023 17.4323 227.897 16.9309 226.352 16.9309C224.248 16.9309 222.727 17.6378 221.79 19.0515C220.853 20.4488 220.385 22.7749 220.385 26.0298V39H212.864V11.4321H218.609L219.62 14.9583H220.04C220.878 13.6267 222.029 12.6239 223.492 11.95C224.971 11.2595 226.648 10.9143 228.522 10.9143C231.727 10.9143 234.16 11.7856 235.821 13.5281C237.481 15.2542 238.311 17.7528 238.311 21.0242V39ZM267.714 39H260.193V22.8982C260.193 20.9091 259.839 19.4214 259.133 18.4351C258.426 17.4323 257.3 16.9309 255.754 16.9309C253.65 16.9309 252.13 17.6378 251.193 19.0515C250.256 20.4488 249.787 22.7749 249.787 26.0298V39H242.266V11.4321H248.012L249.023 14.9583H249.442C250.28 13.6267 251.431 12.6239 252.894 11.95C254.374 11.2595 256.05 10.9143 257.924 10.9143C261.13 10.9143 263.563 11.7856 265.223 13.5281C266.884 15.2542 267.714 17.7528 267.714 21.0242V39ZM305.599 39H296.302L293.467 36.2136C290.327 38.4 286.776 39.4932 282.814 39.4932C278.803 39.4932 275.622 38.5726 273.272 36.7314C270.921 34.8903 269.746 32.3998 269.746 29.26C269.746 27.0079 270.239 25.0928 271.225 23.5146C272.228 21.9201 273.937 20.4324 276.354 19.0515C275.121 17.6378 274.225 16.2898 273.666 15.0076C273.107 13.7089 272.828 12.2952 272.828 10.7664C272.828 8.26766 273.781 6.25391 275.688 4.7251C277.611 3.19629 280.176 2.43188 283.382 2.43188C286.439 2.43188 288.88 3.14697 290.705 4.57715C292.546 5.99089 293.467 7.88957 293.467 10.2732C293.467 12.2294 292.9 14.0212 291.765 15.6487C290.631 17.2597 288.798 18.7967 286.267 20.2598L293.269 27.0901C294.437 25.1667 295.448 22.6927 296.302 19.668H304.144C303.552 21.8872 302.738 24.0571 301.703 26.1777C300.667 28.2819 299.492 30.1477 298.176 31.7751L305.599 39ZM277.661 28.5449C277.661 29.9587 278.187 31.0847 279.239 31.9231C280.307 32.7615 281.672 33.1807 283.332 33.1807C285.403 33.1807 287.269 32.6793 288.93 31.6765L280.743 23.5393C279.79 24.2626 279.033 25.0188 278.475 25.8079C277.932 26.5969 277.661 27.5093 277.661 28.5449ZM286.513 11.0623C286.513 10.191 286.217 9.50879 285.625 9.01562C285.034 8.50602 284.269 8.25122 283.332 8.25122C282.231 8.25122 281.36 8.51424 280.718 9.04028C280.094 9.56632 279.781 10.3143 279.781 11.2842C279.781 12.7308 280.562 14.3254 282.124 16.0679C283.538 15.2788 284.623 14.5062 285.379 13.75C286.135 12.9774 286.513 12.0815 286.513 11.0623ZM313.992 19.9146H316.507C318.858 19.9146 320.617 19.4543 321.784 18.5337C322.951 17.5967 323.535 16.2405 323.535 14.4651C323.535 12.6733 323.042 11.3499 322.055 10.4951C321.086 9.6403 319.557 9.21289 317.469 9.21289H313.992V19.9146ZM331.253 14.1938C331.253 18.0734 330.036 21.0406 327.604 23.0955C325.187 25.1503 321.743 26.1777 317.272 26.1777H313.992V39H306.348V2.94971H317.864C322.236 2.94971 325.557 3.89494 327.825 5.7854C330.11 7.65942 331.253 10.4622 331.253 14.1938ZM339.671 25.1667C339.671 27.8956 340.115 29.9587 341.003 31.356C341.907 32.7533 343.37 33.4519 345.392 33.4519C347.397 33.4519 348.836 32.7615 349.707 31.3806C350.595 29.9833 351.039 27.912 351.039 25.1667C351.039 22.4379 350.595 20.3913 349.707 19.0269C348.819 17.6624 347.365 16.9802 345.343 16.9802C343.337 16.9802 341.89 17.6624 341.003 19.0269C340.115 20.3748 339.671 22.4215 339.671 25.1667ZM358.732 25.1667C358.732 29.6545 357.548 33.1642 355.181 35.6958C352.814 38.2274 349.518 39.4932 345.293 39.4932C342.647 39.4932 340.312 38.9178 338.29 37.7671C336.268 36.5999 334.715 34.9314 333.63 32.7615C332.545 30.5916 332.003 28.06 332.003 25.1667C332.003 20.6625 333.178 17.1611 335.529 14.6624C337.879 12.1637 341.184 10.9143 345.441 10.9143C348.088 10.9143 350.422 11.4897 352.444 12.6404C354.466 13.7911 356.02 15.4432 357.105 17.5967C358.19 19.7502 358.732 22.2735 358.732 25.1667ZM376.299 39.4932C373.06 39.4932 370.52 38.3178 368.679 35.967H368.285C368.548 38.2685 368.679 39.6 368.679 39.9617V51.1318H361.158V11.4321H367.274L368.334 15.0076H368.679C370.438 12.2787 373.044 10.9143 376.496 10.9143C379.751 10.9143 382.299 12.1719 384.14 14.687C385.981 17.2021 386.902 20.6954 386.902 25.1667C386.902 28.1093 386.466 30.6655 385.595 32.8354C384.74 35.0054 383.515 36.6575 381.921 37.7917C380.326 38.926 378.452 39.4932 376.299 39.4932ZM374.079 16.9309C372.222 16.9309 370.865 17.5063 370.011 18.657C369.156 19.7913 368.712 21.6735 368.679 24.3037V25.1174C368.679 28.0764 369.115 30.197 369.986 31.4792C370.874 32.7615 372.271 33.4026 374.178 33.4026C377.548 33.4026 379.233 30.6244 379.233 25.0681C379.233 22.3557 378.814 20.3255 377.975 18.9775C377.153 17.6131 375.855 16.9309 374.079 16.9309ZM404.468 39.4932C401.23 39.4932 398.69 38.3178 396.849 35.967H396.454C396.717 38.2685 396.849 39.6 396.849 39.9617V51.1318H389.328V11.4321H395.443L396.503 15.0076H396.849C398.608 12.2787 401.213 10.9143 404.665 10.9143C407.92 10.9143 410.468 12.1719 412.309 14.687C414.151 17.2021 415.071 20.6954 415.071 25.1667C415.071 28.1093 414.635 30.6655 413.764 32.8354C412.909 35.0054 411.685 36.6575 410.09 37.7917C408.496 38.926 406.622 39.4932 404.468 39.4932ZM402.249 16.9309C400.391 16.9309 399.035 17.5063 398.18 18.657C397.325 19.7913 396.882 21.6735 396.849 24.3037V25.1174C396.849 28.0764 397.284 30.197 398.156 31.4792C399.043 32.7615 400.441 33.4026 402.347 33.4026C405.717 33.4026 407.402 30.6244 407.402 25.0681C407.402 22.3557 406.983 20.3255 406.145 18.9775C405.323 17.6131 404.024 16.9309 402.249 16.9309Z" fill="#28166F"/>
</svg>
