<svg width="1197" height="244" viewBox="0 0 1197 244" fill="none" xmlns="http://www.w3.org/2000/svg" xmlns:xlink="http://www.w3.org/1999/xlink">
<path d="M230.304 111.152C227.36 111.152 224.544 110.608 221.856 109.52C219.168 108.432 216.768 106.832 214.656 104.72C212.608 102.608 210.976 100.016 209.76 96.944C208.544 93.872 207.936 90.384 207.936 86.48C207.936 82.576 208.544 79.088 209.76 76.016C210.976 72.944 212.608 70.352 214.656 68.24C216.768 66.128 219.168 64.528 221.856 63.44C224.544 62.288 227.36 61.712 230.304 61.712C233.248 61.712 236.064 62.288 238.752 63.44C241.504 64.528 243.904 66.128 245.952 68.24C248 70.352 249.632 72.944 250.848 76.016C252.128 79.088 252.768 82.576 252.768 86.48C252.768 90.384 252.128 93.872 250.848 96.944C249.632 100.016 248 102.608 245.952 104.72C243.904 106.832 241.504 108.432 238.752 109.52C236.064 110.608 233.248 111.152 230.304 111.152ZM230.304 102.128C233.76 102.128 236.48 100.72 238.464 97.904C240.448 95.024 241.44 91.216 241.44 86.48C241.44 81.68 240.448 77.872 238.464 75.056C236.48 72.176 233.76 70.736 230.304 70.736C226.848 70.736 224.128 72.176 222.144 75.056C220.224 77.872 219.264 81.68 219.264 86.48C219.264 91.216 220.224 95.024 222.144 97.904C224.128 100.72 226.848 102.128 230.304 102.128ZM259.856 128.624V62.864H268.976L269.744 67.856H270.128C272.112 66.192 274.32 64.752 276.752 63.536C279.184 62.32 281.712 61.712 284.336 61.712C287.28 61.712 289.872 62.288 292.112 63.44C294.416 64.528 296.368 66.128 297.968 68.24C299.568 70.352 300.784 72.88 301.616 75.824C302.448 78.768 302.864 82.064 302.864 85.712C302.864 89.744 302.288 93.36 301.136 96.56C300.048 99.696 298.576 102.352 296.72 104.528C294.864 106.64 292.72 108.272 290.288 109.424C287.856 110.576 285.328 111.152 282.704 111.152C280.656 111.152 278.608 110.704 276.56 109.808C274.512 108.912 272.528 107.632 270.608 105.968L270.896 113.84V128.624H259.856ZM280.399 102.032C283.536 102.032 286.16 100.688 288.272 98C290.384 95.248 291.44 91.184 291.44 85.808C291.44 81.072 290.64 77.392 289.04 74.768C287.44 72.144 284.848 70.832 281.264 70.832C277.936 70.832 274.48 72.592 270.896 76.112V98.096C272.624 99.568 274.288 100.592 275.888 101.168C277.488 101.744 278.992 102.032 280.399 102.032ZM330.363 111.152C327.099 111.152 324.059 110.608 321.243 109.52C318.427 108.368 315.963 106.736 313.851 104.624C311.739 102.512 310.075 99.952 308.859 96.944C307.707 93.872 307.131 90.384 307.131 86.48C307.131 82.64 307.739 79.184 308.955 76.112C310.171 73.04 311.771 70.448 313.755 68.336C315.803 66.224 318.139 64.592 320.763 63.44C323.387 62.288 326.075 61.712 328.827 61.712C332.027 61.712 334.843 62.256 337.275 63.344C339.707 64.432 341.723 65.968 343.323 67.952C344.987 69.936 346.235 72.304 347.067 75.056C347.899 77.808 348.315 80.816 348.315 84.08C348.315 85.168 348.251 86.192 348.123 87.152C348.059 88.112 347.963 88.88 347.835 89.456H317.883C318.395 93.68 319.867 96.944 322.299 99.248C324.795 101.488 327.963 102.608 331.803 102.608C333.851 102.608 335.739 102.32 337.467 101.744C339.259 101.104 341.019 100.24 342.747 99.152L346.491 106.064C344.251 107.536 341.755 108.752 339.003 109.712C336.251 110.672 333.371 111.152 330.363 111.152ZM317.787 81.968H338.715C338.715 78.32 337.915 75.472 336.315 73.424C334.779 71.312 332.379 70.256 329.115 70.256C326.299 70.256 323.835 71.248 321.723 73.232C319.611 75.216 318.299 78.128 317.787 81.968ZM355.019 110V62.864H364.139L364.907 69.2H365.291C367.403 67.152 369.675 65.392 372.107 63.92C374.603 62.448 377.483 61.712 380.747 61.712C385.803 61.712 389.483 63.344 391.787 66.608C394.091 69.808 395.243 74.416 395.243 80.432V110H384.203V81.872C384.203 77.968 383.627 75.216 382.475 73.616C381.323 72.016 379.435 71.216 376.811 71.216C374.763 71.216 372.939 71.728 371.339 72.752C369.803 73.712 368.043 75.152 366.059 77.072V110H355.019ZM401.922 89.84V81.776H424.77V89.84H401.922ZM439.772 110L427.292 62.864H438.428L444.092 87.344C444.604 89.584 445.02 91.824 445.34 94.064C445.724 96.304 446.14 98.576 446.588 100.88H446.972C447.42 98.576 447.868 96.304 448.316 94.064C448.828 91.824 449.372 89.584 449.948 87.344L456.092 62.864H466.172L472.412 87.344C472.988 89.584 473.532 91.824 474.044 94.064C474.556 96.304 475.068 98.576 475.58 100.88H475.964C476.412 98.576 476.828 96.304 477.212 94.064C477.596 91.824 478.012 89.584 478.46 87.344L484.124 62.864H494.492L482.492 110H469.34L463.868 88.016C463.356 85.776 462.876 83.568 462.428 81.392C461.98 79.152 461.5 76.784 460.988 74.288H460.604C460.156 76.784 459.708 79.152 459.26 81.392C458.812 83.632 458.332 85.872 457.82 88.112L452.444 110H439.772ZM510.454 111.152C506.294 111.152 502.934 109.904 500.374 107.408C497.814 104.848 496.534 101.488 496.534 97.328C496.534 94.832 497.046 92.624 498.07 90.704C499.158 88.72 500.822 87.024 503.062 85.616C505.366 84.208 508.246 83.024 511.702 82.064C515.222 81.104 519.414 80.368 524.278 79.856C524.214 78.64 524.022 77.488 523.702 76.4C523.446 75.248 522.966 74.256 522.262 73.424C521.622 72.528 520.758 71.856 519.67 71.408C518.582 70.896 517.238 70.64 515.638 70.64C513.334 70.64 511.062 71.088 508.822 71.984C506.646 72.88 504.502 73.968 502.39 75.248L498.358 67.856C500.982 66.192 503.926 64.752 507.19 63.536C510.454 62.32 513.974 61.712 517.75 61.712C523.638 61.712 528.022 63.472 530.902 66.992C533.846 70.448 535.318 75.472 535.318 82.064V110H526.198L525.43 104.816H525.046C522.934 106.608 520.662 108.112 518.23 109.328C515.862 110.544 513.27 111.152 510.454 111.152ZM514.006 102.512C515.926 102.512 517.654 102.064 519.19 101.168C520.79 100.272 522.486 98.992 524.278 97.328V86.768C521.078 87.152 518.39 87.664 516.214 88.304C514.038 88.944 512.278 89.68 510.934 90.512C509.59 91.28 508.63 92.176 508.054 93.2C507.478 94.224 507.19 95.312 507.19 96.464C507.19 98.576 507.83 100.112 509.11 101.072C510.39 102.032 512.022 102.512 514.006 102.512ZM559.798 111.152C557.046 111.152 554.71 110.736 552.79 109.904C550.934 109.072 549.398 107.92 548.182 106.448C547.03 104.912 546.166 103.12 545.59 101.072C545.078 98.96 544.822 96.624 544.822 94.064V71.6H538.102V63.344L545.398 62.864L546.742 50H555.958V62.864H567.958V71.6H555.958V94.064C555.958 99.568 558.166 102.32 562.582 102.32C563.414 102.32 564.246 102.224 565.078 102.032C565.974 101.84 566.774 101.584 567.478 101.264L569.398 109.424C568.118 109.872 566.646 110.256 564.982 110.576C563.382 110.96 561.654 111.152 559.798 111.152ZM592.698 111.152C589.434 111.152 586.394 110.608 583.578 109.52C580.762 108.368 578.298 106.736 576.186 104.624C574.074 102.512 572.41 99.952 571.194 96.944C570.042 93.872 569.466 90.384 569.466 86.48C569.466 82.64 570.074 79.184 571.29 76.112C572.506 73.04 574.106 70.448 576.09 68.336C578.138 66.224 580.474 64.592 583.098 63.44C585.722 62.288 588.41 61.712 591.162 61.712C594.362 61.712 597.178 62.256 599.61 63.344C602.042 64.432 604.058 65.968 605.658 67.952C607.322 69.936 608.57 72.304 609.402 75.056C610.234 77.808 610.65 80.816 610.65 84.08C610.65 85.168 610.586 86.192 610.458 87.152C610.394 88.112 610.298 88.88 610.17 89.456H580.218C580.73 93.68 582.202 96.944 584.634 99.248C587.13 101.488 590.298 102.608 594.138 102.608C596.186 102.608 598.074 102.32 599.802 101.744C601.594 101.104 603.354 100.24 605.082 99.152L608.826 106.064C606.586 107.536 604.09 108.752 601.338 109.712C598.586 110.672 595.706 111.152 592.698 111.152ZM580.122 81.968H601.05C601.05 78.32 600.25 75.472 598.65 73.424C597.114 71.312 594.714 70.256 591.45 70.256C588.634 70.256 586.17 71.248 584.058 73.232C581.946 75.216 580.634 78.128 580.122 81.968ZM617.354 110V62.864H626.474L627.242 71.216H627.626C629.29 68.144 631.306 65.808 633.674 64.208C636.042 62.544 638.474 61.712 640.97 61.712C643.21 61.712 645.002 62.032 646.346 62.672L644.426 72.272C643.594 72.016 642.826 71.824 642.122 71.696C641.418 71.568 640.554 71.504 639.53 71.504C637.674 71.504 635.722 72.24 633.674 73.712C631.626 75.12 629.866 77.616 628.394 81.2V110H617.354ZM643.82 89.84V81.776H666.668V89.84H643.82ZM687.045 111.152C683.781 111.152 680.549 110.544 677.349 109.328C674.213 108.048 671.493 106.48 669.189 104.624L674.373 97.52C676.485 99.184 678.565 100.496 680.613 101.456C682.725 102.352 684.997 102.8 687.429 102.8C689.989 102.8 691.877 102.288 693.093 101.264C694.309 100.176 694.917 98.8 694.917 97.136C694.917 96.176 694.629 95.344 694.053 94.64C693.477 93.872 692.709 93.2 691.749 92.624C690.789 92.048 689.701 91.536 688.485 91.088C687.269 90.576 686.053 90.064 684.837 89.552C683.301 88.976 681.733 88.304 680.133 87.536C678.533 86.768 677.093 85.84 675.813 84.752C674.597 83.664 673.573 82.416 672.741 81.008C671.973 79.536 671.589 77.808 671.589 75.824C671.589 71.664 673.125 68.272 676.197 65.648C679.269 63.024 683.461 61.712 688.773 61.712C692.037 61.712 694.981 62.288 697.605 63.44C700.229 64.592 702.501 65.904 704.421 67.376L699.333 74.096C697.669 72.88 695.973 71.92 694.245 71.216C692.581 70.448 690.821 70.064 688.965 70.064C686.597 70.064 684.837 70.576 683.685 71.6C682.597 72.56 682.053 73.776 682.053 75.248C682.053 76.208 682.309 77.04 682.821 77.744C683.397 78.384 684.133 78.96 685.029 79.472C685.925 79.984 686.949 80.464 688.101 80.912C689.317 81.36 690.565 81.808 691.845 82.256C693.445 82.832 695.045 83.504 696.645 84.272C698.245 84.976 699.685 85.872 700.965 86.96C702.309 88.048 703.365 89.392 704.133 90.992C704.965 92.528 705.381 94.384 705.381 96.56C705.381 98.608 704.965 100.528 704.133 102.32C703.365 104.048 702.213 105.584 700.677 106.928C699.141 108.208 697.221 109.232 694.917 110C692.613 110.768 689.989 111.152 687.045 111.152ZM719.173 110L706.693 62.864H717.829L723.493 87.344C724.005 89.584 724.421 91.824 724.741 94.064C725.125 96.304 725.541 98.576 725.989 100.88H726.373C726.821 98.576 727.269 96.304 727.717 94.064C728.229 91.824 728.773 89.584 729.349 87.344L735.493 62.864H745.573L751.813 87.344C752.389 89.584 752.933 91.824 753.445 94.064C753.957 96.304 754.469 98.576 754.981 100.88H755.365C755.813 98.576 756.229 96.304 756.613 94.064C756.997 91.824 757.413 89.584 757.861 87.344L763.525 62.864H773.893L761.893 110H748.741L743.269 88.016C742.757 85.776 742.277 83.568 741.829 81.392C741.381 79.152 740.901 76.784 740.389 74.288H740.005C739.557 76.784 739.109 79.152 738.661 81.392C738.213 83.632 737.733 85.872 737.221 88.112L731.845 110H719.173ZM779.369 110V62.864H790.409V110H779.369ZM784.937 54.608C782.953 54.608 781.321 54.032 780.041 52.88C778.761 51.728 778.121 50.224 778.121 48.368C778.121 46.512 778.761 45.008 780.041 43.856C781.321 42.64 782.953 42.032 784.937 42.032C786.921 42.032 788.553 42.64 789.833 43.856C791.113 45.008 791.753 46.512 791.753 48.368C791.753 50.224 791.113 51.728 789.833 52.88C788.553 54.032 786.921 54.608 784.937 54.608ZM800.654 110V62.864H809.774L810.542 69.296H810.926C812.91 67.184 815.054 65.392 817.358 63.92C819.726 62.448 822.382 61.712 825.326 61.712C828.782 61.712 831.534 62.448 833.582 63.92C835.694 65.392 837.294 67.472 838.382 70.16C840.622 67.728 842.958 65.712 845.39 64.112C847.822 62.512 850.542 61.712 853.55 61.712C858.542 61.712 862.222 63.344 864.59 66.608C866.958 69.808 868.142 74.416 868.142 80.432V110H857.006V81.872C857.006 77.968 856.398 75.216 855.182 73.616C854.03 72.016 852.238 71.216 849.806 71.216C846.862 71.216 843.566 73.168 839.918 77.072V110H828.878V81.872C828.878 77.968 828.27 75.216 827.054 73.616C825.902 72.016 824.078 71.216 821.582 71.216C818.638 71.216 815.342 73.168 811.694 77.072V110H800.654ZM890.873 111.152C887.609 111.152 884.377 110.544 881.177 109.328C878.041 108.048 875.321 106.48 873.017 104.624L878.201 97.52C880.313 99.184 882.393 100.496 884.441 101.456C886.553 102.352 888.825 102.8 891.257 102.8C893.817 102.8 895.705 102.288 896.921 101.264C898.137 100.176 898.745 98.8 898.745 97.136C898.745 96.176 898.457 95.344 897.881 94.64C897.305 93.872 896.537 93.2 895.577 92.624C894.617 92.048 893.529 91.536 892.313 91.088C891.097 90.576 889.881 90.064 888.665 89.552C887.129 88.976 885.561 88.304 883.961 87.536C882.361 86.768 880.921 85.84 879.641 84.752C878.425 83.664 877.401 82.416 876.569 81.008C875.801 79.536 875.417 77.808 875.417 75.824C875.417 71.664 876.953 68.272 880.025 65.648C883.097 63.024 887.289 61.712 892.601 61.712C895.865 61.712 898.809 62.288 901.433 63.44C904.057 64.592 906.329 65.904 908.249 67.376L903.161 74.096C901.497 72.88 899.801 71.92 898.073 71.216C896.409 70.448 894.649 70.064 892.793 70.064C890.425 70.064 888.665 70.576 887.513 71.6C886.425 72.56 885.881 73.776 885.881 75.248C885.881 76.208 886.137 77.04 886.649 77.744C887.225 78.384 887.961 78.96 888.857 79.472C889.753 79.984 890.777 80.464 891.929 80.912C893.145 81.36 894.393 81.808 895.673 82.256C897.273 82.832 898.873 83.504 900.473 84.272C902.073 84.976 903.513 85.872 904.793 86.96C906.137 88.048 907.193 89.392 907.961 90.992C908.793 92.528 909.209 94.384 909.209 96.56C909.209 98.608 908.793 100.528 907.961 102.32C907.193 104.048 906.041 105.584 904.505 106.928C902.969 108.208 901.049 109.232 898.745 110C896.441 110.768 893.817 111.152 890.873 111.152ZM921.464 111.152C919.416 111.152 917.688 110.448 916.28 109.04C914.936 107.632 914.264 105.84 914.264 103.664C914.264 101.488 914.936 99.696 916.28 98.288C917.688 96.88 919.416 96.176 921.464 96.176C923.512 96.176 925.208 96.88 926.552 98.288C927.896 99.696 928.568 101.488 928.568 103.664C928.568 105.84 927.896 107.632 926.552 109.04C925.208 110.448 923.512 111.152 921.464 111.152ZM956.471 111.152C953.271 111.152 950.263 110.608 947.447 109.52C944.695 108.432 942.295 106.832 940.247 104.72C938.199 102.608 936.599 100.016 935.447 96.944C934.295 93.872 933.719 90.384 933.719 86.48C933.719 82.576 934.359 79.088 935.639 76.016C936.919 72.944 938.647 70.352 940.823 68.24C942.999 66.128 945.495 64.528 948.311 63.44C951.191 62.288 954.199 61.712 957.335 61.712C960.407 61.712 963.031 62.224 965.207 63.248C967.447 64.272 969.431 65.52 971.159 66.992L965.783 74.192C964.503 73.104 963.223 72.272 961.943 71.696C960.727 71.056 959.383 70.736 957.911 70.736C954.071 70.736 950.967 72.176 948.599 75.056C946.231 77.872 945.047 81.68 945.047 86.48C945.047 91.216 946.199 95.024 948.503 97.904C950.871 100.72 953.911 102.128 957.623 102.128C959.479 102.128 961.207 101.744 962.807 100.976C964.471 100.144 965.975 99.184 967.319 98.096L971.831 105.392C969.591 107.312 967.127 108.752 964.439 109.712C961.815 110.672 959.159 111.152 956.471 111.152ZM994.247 111.152C991.303 111.152 988.487 110.608 985.799 109.52C983.111 108.432 980.711 106.832 978.599 104.72C976.551 102.608 974.919 100.016 973.703 96.944C972.487 93.872 971.879 90.384 971.879 86.48C971.879 82.576 972.487 79.088 973.703 76.016C974.919 72.944 976.551 70.352 978.599 68.24C980.711 66.128 983.111 64.528 985.799 63.44C988.487 62.288 991.303 61.712 994.247 61.712C997.191 61.712 1000.01 62.288 1002.69 63.44C1005.45 64.528 1007.85 66.128 1009.89 68.24C1011.94 70.352 1013.57 72.944 1014.79 76.016C1016.07 79.088 1016.71 82.576 1016.71 86.48C1016.71 90.384 1016.07 93.872 1014.79 96.944C1013.57 100.016 1011.94 102.608 1009.89 104.72C1007.85 106.832 1005.45 108.432 1002.69 109.52C1000.01 110.608 997.191 111.152 994.247 111.152ZM994.247 102.128C997.703 102.128 1000.42 100.72 1002.41 97.904C1004.39 95.024 1005.38 91.216 1005.38 86.48C1005.38 81.68 1004.39 77.872 1002.41 75.056C1000.42 72.176 997.703 70.736 994.247 70.736C990.791 70.736 988.071 72.176 986.087 75.056C984.167 77.872 983.207 81.68 983.207 86.48C983.207 91.216 984.167 95.024 986.087 97.904C988.071 100.72 990.791 102.128 994.247 102.128ZM1023.8 110V62.864H1032.92L1033.69 69.296H1034.07C1036.05 67.184 1038.2 65.392 1040.5 63.92C1042.87 62.448 1045.53 61.712 1048.47 61.712C1051.93 61.712 1054.68 62.448 1056.73 63.92C1058.84 65.392 1060.44 67.472 1061.53 70.16C1063.77 67.728 1066.1 65.712 1068.53 64.112C1070.97 62.512 1073.69 61.712 1076.69 61.712C1081.69 61.712 1085.37 63.344 1087.73 66.608C1090.1 69.808 1091.29 74.416 1091.29 80.432V110H1080.15V81.872C1080.15 77.968 1079.54 75.216 1078.33 73.616C1077.17 72.016 1075.38 71.216 1072.95 71.216C1070.01 71.216 1066.71 73.168 1063.06 77.072V110H1052.02V81.872C1052.02 77.968 1051.41 75.216 1050.2 73.616C1049.05 72.016 1047.22 71.216 1044.73 71.216C1041.78 71.216 1038.49 73.168 1034.84 77.072V110H1023.8Z" fill="#515050"/>
<path d="M208.166 171V146.311H211.62L211.976 149.867H212.128C213.212 148.682 214.38 147.7 215.633 146.921C216.92 146.108 218.309 145.702 219.799 145.702C221.695 145.702 223.169 146.125 224.218 146.972C225.302 147.784 226.098 148.936 226.606 150.426C227.893 149.004 229.18 147.869 230.467 147.022C231.788 146.142 233.21 145.702 234.734 145.702C237.274 145.702 239.154 146.514 240.373 148.14C241.626 149.766 242.252 152.17 242.252 155.354V171H238.087V155.912C238.087 153.576 237.714 151.899 236.969 150.883C236.224 149.833 235.073 149.308 233.515 149.308C231.652 149.308 229.586 150.578 227.317 153.118V171H223.152V155.912C223.152 153.576 222.779 151.899 222.034 150.883C221.289 149.833 220.121 149.308 218.529 149.308C216.666 149.308 214.6 150.578 212.331 153.118V171H208.166ZM255.974 171.61C253.908 171.61 252.18 171 250.792 169.781C249.437 168.562 248.76 166.834 248.76 164.599C248.76 161.89 249.962 159.824 252.367 158.402C254.771 156.945 258.615 155.929 263.898 155.354C263.898 154.575 263.814 153.813 263.644 153.068C263.509 152.323 263.255 151.662 262.882 151.086C262.51 150.511 261.985 150.053 261.308 149.715C260.664 149.342 259.834 149.156 258.818 149.156C257.396 149.156 256.058 149.427 254.805 149.969C253.552 150.511 252.434 151.12 251.452 151.798L249.827 148.902C250.978 148.157 252.384 147.446 254.043 146.768C255.703 146.057 257.531 145.702 259.53 145.702C262.544 145.702 264.728 146.633 266.083 148.496C267.437 150.324 268.115 152.78 268.115 155.862V171H264.66L264.305 168.054H264.152C262.967 169.036 261.697 169.882 260.342 170.594C258.988 171.271 257.531 171.61 255.974 171.61ZM257.193 168.257C258.378 168.257 259.496 167.986 260.546 167.444C261.595 166.868 262.713 166.039 263.898 164.955V158.097C261.832 158.368 260.088 158.689 258.666 159.062C257.277 159.435 256.143 159.875 255.262 160.383C254.416 160.891 253.789 161.483 253.383 162.161C253.01 162.804 252.824 163.515 252.824 164.294C252.824 165.717 253.247 166.733 254.094 167.342C254.941 167.952 255.974 168.257 257.193 168.257ZM275.882 181.414V146.311H279.337L279.692 149.156H279.845C280.962 148.208 282.182 147.395 283.502 146.718C284.857 146.04 286.263 145.702 287.719 145.702C289.311 145.702 290.716 146.006 291.935 146.616C293.154 147.192 294.17 148.038 294.983 149.156C295.796 150.24 296.406 151.561 296.812 153.118C297.252 154.642 297.472 156.37 297.472 158.3C297.472 160.4 297.185 162.279 296.609 163.939C296.033 165.564 295.254 166.953 294.272 168.104C293.29 169.256 292.155 170.136 290.868 170.746C289.581 171.322 288.227 171.61 286.804 171.61C285.653 171.61 284.501 171.356 283.35 170.848C282.232 170.34 281.098 169.645 279.946 168.765L280.048 173.083V181.414H275.882ZM286.093 168.104C287.109 168.104 288.041 167.884 288.887 167.444C289.768 166.97 290.513 166.326 291.122 165.514C291.766 164.667 292.257 163.634 292.596 162.415C292.968 161.196 293.154 159.824 293.154 158.3C293.154 156.945 293.036 155.709 292.799 154.592C292.562 153.474 292.172 152.526 291.63 151.747C291.122 150.934 290.445 150.307 289.598 149.867C288.786 149.427 287.803 149.207 286.652 149.207C285.602 149.207 284.535 149.495 283.452 150.07C282.402 150.646 281.267 151.476 280.048 152.56V165.514C281.166 166.462 282.249 167.139 283.299 167.546C284.349 167.918 285.28 168.104 286.093 168.104ZM323.832 171.61C322.308 171.61 320.851 171.322 319.463 170.746C318.108 170.17 316.906 169.341 315.856 168.257C314.806 167.139 313.96 165.785 313.316 164.193C312.706 162.567 312.402 160.738 312.402 158.706C312.402 156.641 312.706 154.812 313.316 153.22C313.96 151.594 314.806 150.223 315.856 149.105C316.906 147.988 318.108 147.141 319.463 146.565C320.851 145.989 322.308 145.702 323.832 145.702C325.356 145.702 326.795 145.989 328.15 146.565C329.538 147.141 330.757 147.988 331.807 149.105C332.857 150.223 333.687 151.594 334.296 153.22C334.94 154.812 335.262 156.641 335.262 158.706C335.262 160.738 334.94 162.567 334.296 164.193C333.687 165.785 332.857 167.139 331.807 168.257C330.757 169.341 329.538 170.17 328.15 170.746C326.795 171.322 325.356 171.61 323.832 171.61ZM323.832 168.155C324.882 168.155 325.847 167.935 326.727 167.495C327.608 167.021 328.353 166.377 328.962 165.564C329.606 164.718 330.097 163.719 330.436 162.567C330.774 161.416 330.944 160.129 330.944 158.706C330.944 157.284 330.774 155.997 330.436 154.846C330.097 153.66 329.606 152.644 328.962 151.798C328.353 150.951 327.608 150.307 326.727 149.867C325.847 149.393 324.882 149.156 323.832 149.156C322.782 149.156 321.817 149.393 320.936 149.867C320.056 150.307 319.294 150.951 318.65 151.798C318.04 152.644 317.566 153.66 317.228 154.846C316.889 155.997 316.72 157.284 316.72 158.706C316.72 160.129 316.889 161.416 317.228 162.567C317.566 163.719 318.04 164.718 318.65 165.564C319.294 166.377 320.056 167.021 320.936 167.495C321.817 167.935 322.782 168.155 323.832 168.155ZM342.475 171V149.715H339.122V146.565L342.475 146.311V142.4C342.475 139.86 343.051 137.861 344.202 136.405C345.387 134.949 347.216 134.221 349.688 134.221C350.467 134.221 351.196 134.305 351.873 134.475C352.584 134.61 353.228 134.797 353.803 135.034L352.889 138.234C351.974 137.828 351.043 137.624 350.095 137.624C347.792 137.624 346.64 139.216 346.64 142.4V146.311H351.873V149.715H346.64V171H342.475ZM376.368 171.61C374.844 171.61 373.388 171.322 371.999 170.746C370.644 170.17 369.442 169.341 368.392 168.257C367.342 167.139 366.496 165.785 365.852 164.193C365.243 162.567 364.938 160.738 364.938 158.706C364.938 156.641 365.243 154.812 365.852 153.22C366.496 151.594 367.342 150.223 368.392 149.105C369.442 147.988 370.644 147.141 371.999 146.565C373.388 145.989 374.844 145.702 376.368 145.702C377.892 145.702 379.331 145.989 380.686 146.565C382.074 147.141 383.294 147.988 384.344 149.105C385.393 150.223 386.223 151.594 386.833 153.22C387.476 154.812 387.798 156.641 387.798 158.706C387.798 160.738 387.476 162.567 386.833 164.193C386.223 165.785 385.393 167.139 384.344 168.257C383.294 169.341 382.074 170.17 380.686 170.746C379.331 171.322 377.892 171.61 376.368 171.61ZM376.368 168.155C377.418 168.155 378.383 167.935 379.264 167.495C380.144 167.021 380.889 166.377 381.499 165.564C382.142 164.718 382.633 163.719 382.972 162.567C383.311 161.416 383.48 160.129 383.48 158.706C383.48 157.284 383.311 155.997 382.972 154.846C382.633 153.66 382.142 152.644 381.499 151.798C380.889 150.951 380.144 150.307 379.264 149.867C378.383 149.393 377.418 149.156 376.368 149.156C375.318 149.156 374.353 149.393 373.472 149.867C372.592 150.307 371.83 150.951 371.186 151.798C370.577 152.644 370.103 153.66 369.764 154.846C369.425 155.997 369.256 157.284 369.256 158.706C369.256 160.129 369.425 161.416 369.764 162.567C370.103 163.719 370.577 164.718 371.186 165.564C371.83 166.377 372.592 167.021 373.472 167.495C374.353 167.935 375.318 168.155 376.368 168.155ZM394.3 181.414V146.311H397.754L398.11 149.156H398.262C399.38 148.208 400.599 147.395 401.92 146.718C403.275 146.04 404.68 145.702 406.136 145.702C407.728 145.702 409.134 146.006 410.353 146.616C411.572 147.192 412.588 148.038 413.401 149.156C414.214 150.24 414.823 151.561 415.23 153.118C415.67 154.642 415.89 156.37 415.89 158.3C415.89 160.4 415.602 162.279 415.026 163.939C414.451 165.564 413.672 166.953 412.69 168.104C411.707 169.256 410.573 170.136 409.286 170.746C407.999 171.322 406.644 171.61 405.222 171.61C404.071 171.61 402.919 171.356 401.768 170.848C400.65 170.34 399.515 169.645 398.364 168.765L398.466 173.083V181.414H394.3ZM404.511 168.104C405.527 168.104 406.458 167.884 407.305 167.444C408.185 166.97 408.93 166.326 409.54 165.514C410.183 164.667 410.675 163.634 411.013 162.415C411.386 161.196 411.572 159.824 411.572 158.3C411.572 156.945 411.453 155.709 411.216 154.592C410.979 153.474 410.59 152.526 410.048 151.747C409.54 150.934 408.863 150.307 408.016 149.867C407.203 149.427 406.221 149.207 405.07 149.207C404.02 149.207 402.953 149.495 401.869 150.07C400.819 150.646 399.685 151.476 398.466 152.56V165.514C399.583 166.462 400.667 167.139 401.717 167.546C402.767 167.918 403.698 168.104 404.511 168.104ZM432.486 171.61C430.826 171.61 429.268 171.322 427.812 170.746C426.39 170.136 425.137 169.29 424.053 168.206C423.003 167.088 422.173 165.734 421.564 164.142C420.954 162.55 420.649 160.738 420.649 158.706C420.649 156.674 420.954 154.863 421.564 153.271C422.207 151.645 423.037 150.274 424.053 149.156C425.103 148.038 426.288 147.192 427.609 146.616C428.93 146.006 430.301 145.702 431.724 145.702C433.282 145.702 434.67 145.973 435.889 146.514C437.142 147.056 438.175 147.835 438.988 148.851C439.835 149.867 440.478 151.086 440.919 152.509C441.359 153.931 441.579 155.523 441.579 157.284C441.579 157.724 441.562 158.165 441.528 158.605C441.528 159.011 441.494 159.367 441.427 159.672H424.764C424.933 162.313 425.746 164.413 427.203 165.971C428.693 167.495 430.623 168.257 432.994 168.257C434.179 168.257 435.263 168.087 436.245 167.749C437.261 167.376 438.226 166.902 439.141 166.326L440.614 169.07C439.53 169.747 438.328 170.34 437.007 170.848C435.686 171.356 434.179 171.61 432.486 171.61ZM424.713 156.674H437.921C437.921 154.168 437.379 152.272 436.296 150.985C435.246 149.664 433.756 149.004 431.825 149.004C430.945 149.004 430.098 149.173 429.285 149.512C428.506 149.85 427.795 150.358 427.152 151.036C426.508 151.679 425.966 152.475 425.526 153.423C425.12 154.371 424.849 155.455 424.713 156.674ZM447.68 171V146.311H451.134L451.49 149.867H451.642C452.827 148.682 454.064 147.7 455.35 146.921C456.671 146.108 458.195 145.702 459.922 145.702C462.53 145.702 464.427 146.514 465.612 148.14C466.831 149.766 467.441 152.17 467.441 155.354V171H463.275V155.912C463.275 153.576 462.903 151.899 462.158 150.883C461.413 149.833 460.227 149.308 458.602 149.308C457.315 149.308 456.18 149.63 455.198 150.274C454.216 150.917 453.098 151.865 451.845 153.118V171H447.68ZM473.378 159.875V156.674H485.062V159.875H473.378ZM495.148 171L488.29 146.311H492.558L496.215 160.586C496.486 161.771 496.74 162.923 496.977 164.04C497.214 165.158 497.451 166.293 497.688 167.444H497.892C498.162 166.293 498.433 165.158 498.704 164.04C498.975 162.889 499.263 161.737 499.568 160.586L503.378 146.311H507.442L511.303 160.586C511.608 161.771 511.895 162.923 512.166 164.04C512.471 165.158 512.759 166.293 513.03 167.444H513.233C513.504 166.293 513.758 165.158 513.995 164.04C514.232 162.923 514.486 161.771 514.757 160.586L518.364 146.311H522.326L515.722 171H510.642L507.086 157.741C506.782 156.556 506.494 155.387 506.223 154.236C505.986 153.085 505.715 151.882 505.41 150.629H505.207C504.936 151.882 504.665 153.101 504.394 154.287C504.123 155.438 503.818 156.607 503.48 157.792L500.025 171H495.148ZM532.893 171.61C530.827 171.61 529.1 171 527.712 169.781C526.357 168.562 525.68 166.834 525.68 164.599C525.68 161.89 526.882 159.824 529.286 158.402C531.691 156.945 535.535 155.929 540.818 155.354C540.818 154.575 540.733 153.813 540.564 153.068C540.428 152.323 540.174 151.662 539.802 151.086C539.429 150.511 538.904 150.053 538.227 149.715C537.584 149.342 536.754 149.156 535.738 149.156C534.316 149.156 532.978 149.427 531.725 149.969C530.472 150.511 529.354 151.12 528.372 151.798L526.746 148.902C527.898 148.157 529.303 147.446 530.963 146.768C532.622 146.057 534.451 145.702 536.449 145.702C539.463 145.702 541.648 146.633 543.002 148.496C544.357 150.324 545.034 152.78 545.034 155.862V171H541.58L541.224 168.054H541.072C539.887 169.036 538.617 169.882 537.262 170.594C535.907 171.271 534.451 171.61 532.893 171.61ZM534.112 168.257C535.298 168.257 536.415 167.986 537.465 167.444C538.515 166.868 539.633 166.039 540.818 164.955V158.097C538.752 158.368 537.008 158.689 535.586 159.062C534.197 159.435 533.062 159.875 532.182 160.383C531.335 160.891 530.709 161.483 530.302 162.161C529.93 162.804 529.744 163.515 529.744 164.294C529.744 165.717 530.167 166.733 531.014 167.342C531.86 167.952 532.893 168.257 534.112 168.257ZM559.88 171.61C558.559 171.61 557.441 171.406 556.527 171C555.646 170.594 554.918 170.035 554.343 169.324C553.801 168.612 553.411 167.749 553.174 166.733C552.937 165.717 552.819 164.599 552.819 163.38V149.715H549.161V146.565L553.022 146.311L553.53 139.402H557.035V146.311H563.69V149.715H557.035V163.431C557.035 164.955 557.306 166.14 557.848 166.987C558.424 167.8 559.423 168.206 560.845 168.206C561.285 168.206 561.759 168.138 562.267 168.003C562.775 167.867 563.233 167.715 563.639 167.546L564.452 170.695C563.774 170.932 563.029 171.135 562.217 171.305C561.438 171.508 560.659 171.61 559.88 171.61ZM578.585 171.61C576.926 171.61 575.368 171.322 573.912 170.746C572.489 170.136 571.236 169.29 570.153 168.206C569.103 167.088 568.273 165.734 567.663 164.142C567.054 162.55 566.749 160.738 566.749 158.706C566.749 156.674 567.054 154.863 567.663 153.271C568.307 151.645 569.137 150.274 570.153 149.156C571.202 148.038 572.388 147.192 573.709 146.616C575.029 146.006 576.401 145.702 577.823 145.702C579.381 145.702 580.77 145.973 581.989 146.514C583.242 147.056 584.275 147.835 585.088 148.851C585.934 149.867 586.578 151.086 587.018 152.509C587.458 153.931 587.679 155.523 587.679 157.284C587.679 157.724 587.662 158.165 587.628 158.605C587.628 159.011 587.594 159.367 587.526 159.672H570.864C571.033 162.313 571.846 164.413 573.302 165.971C574.792 167.495 576.723 168.257 579.093 168.257C580.279 168.257 581.362 168.087 582.345 167.749C583.361 167.376 584.326 166.902 585.24 166.326L586.713 169.07C585.63 169.747 584.427 170.34 583.107 170.848C581.786 171.356 580.279 171.61 578.585 171.61ZM570.813 156.674H584.021C584.021 154.168 583.479 152.272 582.395 150.985C581.345 149.664 579.855 149.004 577.925 149.004C577.044 149.004 576.198 149.173 575.385 149.512C574.606 149.85 573.895 150.358 573.251 151.036C572.608 151.679 572.066 152.475 571.626 153.423C571.219 154.371 570.948 155.455 570.813 156.674ZM593.779 171V146.311H597.234L597.589 150.782H597.742C598.588 149.224 599.604 147.988 600.79 147.073C602.009 146.159 603.33 145.702 604.752 145.702C605.734 145.702 606.615 145.871 607.394 146.21L606.581 149.867C606.174 149.732 605.802 149.63 605.463 149.562C605.125 149.495 604.701 149.461 604.193 149.461C603.143 149.461 602.043 149.884 600.891 150.731C599.774 151.577 598.792 153.051 597.945 155.15V171H593.779ZM608.068 159.875V156.674H619.752V159.875H608.068ZM632.378 171.61C630.617 171.61 628.94 171.288 627.349 170.644C625.757 170.001 624.368 169.188 623.183 168.206L625.266 165.412C626.349 166.293 627.45 167.004 628.568 167.546C629.719 168.087 631.04 168.358 632.53 168.358C634.156 168.358 635.375 167.986 636.188 167.241C637.001 166.496 637.407 165.581 637.407 164.498C637.407 163.854 637.238 163.295 636.899 162.821C636.56 162.347 636.12 161.941 635.578 161.602C635.07 161.229 634.477 160.908 633.8 160.637C633.123 160.366 632.445 160.095 631.768 159.824C630.888 159.519 630.007 159.181 629.127 158.808C628.246 158.402 627.45 157.927 626.739 157.386C626.062 156.81 625.503 156.149 625.063 155.404C624.622 154.659 624.402 153.762 624.402 152.712C624.402 151.73 624.588 150.815 624.961 149.969C625.367 149.088 625.926 148.343 626.637 147.734C627.382 147.09 628.28 146.599 629.33 146.26C630.38 145.888 631.565 145.702 632.886 145.702C634.444 145.702 635.866 145.973 637.153 146.514C638.474 147.056 639.608 147.717 640.557 148.496L638.575 151.137C637.729 150.494 636.848 149.969 635.934 149.562C635.019 149.156 634.02 148.953 632.937 148.953C631.379 148.953 630.227 149.308 629.482 150.02C628.771 150.731 628.415 151.561 628.415 152.509C628.415 153.085 628.568 153.593 628.873 154.033C629.177 154.439 629.584 154.812 630.092 155.15C630.6 155.455 631.175 155.743 631.819 156.014C632.496 156.251 633.191 156.505 633.902 156.776C634.782 157.115 635.663 157.47 636.543 157.843C637.458 158.215 638.271 158.689 638.982 159.265C639.693 159.807 640.269 160.484 640.709 161.297C641.183 162.11 641.42 163.092 641.42 164.244C641.42 165.26 641.217 166.208 640.811 167.088C640.438 167.969 639.862 168.748 639.083 169.425C638.338 170.103 637.39 170.627 636.239 171C635.121 171.406 633.834 171.61 632.378 171.61ZM651.12 171L644.262 146.311H648.529L652.187 160.586C652.458 161.771 652.712 162.923 652.949 164.04C653.186 165.158 653.423 166.293 653.66 167.444H653.863C654.134 166.293 654.405 165.158 654.676 164.04C654.947 162.889 655.235 161.737 655.54 160.586L659.35 146.311H663.414L667.275 160.586C667.579 161.771 667.867 162.923 668.138 164.04C668.443 165.158 668.731 166.293 669.002 167.444H669.205C669.476 166.293 669.73 165.158 669.967 164.04C670.204 162.923 670.458 161.771 670.729 160.586L674.336 146.311H678.298L671.694 171H666.614L663.058 157.741C662.753 156.556 662.466 155.387 662.195 154.236C661.958 153.085 661.687 151.882 661.382 150.629H661.179C660.908 151.882 660.637 153.101 660.366 154.287C660.095 155.438 659.79 156.607 659.451 157.792L655.997 171H651.12ZM683.671 171V146.311H687.837V171H683.671ZM685.805 141.231C684.992 141.231 684.298 140.977 683.722 140.469C683.18 139.961 682.909 139.318 682.909 138.539C682.909 137.726 683.18 137.083 683.722 136.608C684.298 136.1 684.992 135.846 685.805 135.846C686.618 135.846 687.295 136.1 687.837 136.608C688.413 137.083 688.701 137.726 688.701 138.539C688.701 139.318 688.413 139.961 687.837 140.469C687.295 140.977 686.618 141.231 685.805 141.231ZM696.173 171V146.311H699.627L699.983 149.867H700.135C701.219 148.682 702.388 147.7 703.641 146.921C704.928 146.108 706.316 145.702 707.806 145.702C709.703 145.702 711.176 146.125 712.226 146.972C713.31 147.784 714.105 148.936 714.613 150.426C715.9 149.004 717.187 147.869 718.474 147.022C719.795 146.142 721.217 145.702 722.741 145.702C725.281 145.702 727.161 146.514 728.38 148.14C729.633 149.766 730.26 152.17 730.26 155.354V171H726.094V155.912C726.094 153.576 725.722 151.899 724.977 150.883C724.232 149.833 723.08 149.308 721.522 149.308C719.66 149.308 717.594 150.578 715.325 153.118V171H711.159V155.912C711.159 153.576 710.786 151.899 710.041 150.883C709.296 149.833 708.128 149.308 706.536 149.308C704.674 149.308 702.608 150.578 700.339 153.118V171H696.173ZM758.469 171.61C756.809 171.61 755.252 171.322 753.795 170.746C752.373 170.136 751.12 169.29 750.036 168.206C748.986 167.088 748.157 165.734 747.547 164.142C746.937 162.55 746.633 160.738 746.633 158.706C746.633 156.674 746.937 154.863 747.547 153.271C748.19 151.645 749.02 150.274 750.036 149.156C751.086 148.038 752.271 147.192 753.592 146.616C754.913 146.006 756.285 145.702 757.707 145.702C759.265 145.702 760.653 145.973 761.873 146.514C763.126 147.056 764.159 147.835 764.971 148.851C765.818 149.867 766.461 151.086 766.902 152.509C767.342 153.931 767.562 155.523 767.562 157.284C767.562 157.724 767.545 158.165 767.511 158.605C767.511 159.011 767.477 159.367 767.41 159.672H750.747C750.917 162.313 751.729 164.413 753.186 165.971C754.676 167.495 756.606 168.257 758.977 168.257C760.162 168.257 761.246 168.087 762.228 167.749C763.244 167.376 764.209 166.902 765.124 166.326L766.597 169.07C765.513 169.747 764.311 170.34 762.99 170.848C761.669 171.356 760.162 171.61 758.469 171.61ZM750.697 156.674H763.905C763.905 154.168 763.363 152.272 762.279 150.985C761.229 149.664 759.739 149.004 757.809 149.004C756.928 149.004 756.081 149.173 755.269 149.512C754.49 149.85 753.778 150.358 753.135 151.036C752.491 151.679 751.95 152.475 751.509 153.423C751.103 154.371 750.832 155.455 750.697 156.674ZM779.245 171L770.355 146.311H774.673L779.347 160.332C779.719 161.551 780.092 162.77 780.464 163.99C780.871 165.209 781.26 166.411 781.633 167.596H781.836C782.208 166.411 782.581 165.209 782.953 163.99C783.326 162.77 783.698 161.551 784.071 160.332L788.745 146.311H792.859L784.122 171H779.245ZM807.433 171.61C805.774 171.61 804.216 171.322 802.76 170.746C801.337 170.136 800.084 169.29 799.001 168.206C797.951 167.088 797.121 165.734 796.511 164.142C795.902 162.55 795.597 160.738 795.597 158.706C795.597 156.674 795.902 154.863 796.511 153.271C797.155 151.645 797.985 150.274 799.001 149.156C800.05 148.038 801.236 147.192 802.557 146.616C803.877 146.006 805.249 145.702 806.671 145.702C808.229 145.702 809.618 145.973 810.837 146.514C812.09 147.056 813.123 147.835 813.936 148.851C814.782 149.867 815.426 151.086 815.866 152.509C816.306 153.931 816.527 155.523 816.527 157.284C816.527 157.724 816.51 158.165 816.476 158.605C816.476 159.011 816.442 159.367 816.374 159.672H799.712C799.881 162.313 800.694 164.413 802.15 165.971C803.64 167.495 805.571 168.257 807.941 168.257C809.127 168.257 810.21 168.087 811.193 167.749C812.209 167.376 813.174 166.902 814.088 166.326L815.561 169.07C814.478 169.747 813.275 170.34 811.955 170.848C810.634 171.356 809.127 171.61 807.433 171.61ZM799.661 156.674H812.869C812.869 154.168 812.327 152.272 811.243 150.985C810.193 149.664 808.703 149.004 806.773 149.004C805.892 149.004 805.046 149.173 804.233 149.512C803.454 149.85 802.743 150.358 802.099 151.036C801.456 151.679 800.914 152.475 800.474 153.423C800.067 154.371 799.796 155.455 799.661 156.674ZM822.627 171V146.311H826.082L826.437 149.867H826.59C827.775 148.682 829.011 147.7 830.298 146.921C831.619 146.108 833.143 145.702 834.87 145.702C837.478 145.702 839.374 146.514 840.56 148.14C841.779 149.766 842.389 152.17 842.389 155.354V171H838.223V155.912C838.223 153.576 837.85 151.899 837.105 150.883C836.36 149.833 835.175 149.308 833.549 149.308C832.262 149.308 831.128 149.63 830.146 150.274C829.164 150.917 828.046 151.865 826.793 153.118V171H822.627ZM858.181 171.61C856.86 171.61 855.743 171.406 854.828 171C853.948 170.594 853.22 170.035 852.644 169.324C852.102 168.612 851.712 167.749 851.475 166.733C851.238 165.717 851.12 164.599 851.12 163.38V149.715H847.462V146.565L851.323 146.311L851.831 139.402H855.336V146.311H861.991V149.715H855.336V163.431C855.336 164.955 855.607 166.14 856.149 166.987C856.725 167.8 857.724 168.206 859.146 168.206C859.586 168.206 860.061 168.138 860.569 168.003C861.077 167.867 861.534 167.715 861.94 167.546L862.753 170.695C862.076 170.932 861.331 171.135 860.518 171.305C859.739 171.508 858.96 171.61 858.181 171.61ZM873.529 171.61C871.768 171.61 870.091 171.288 868.5 170.644C866.908 170.001 865.519 169.188 864.334 168.206L866.417 165.412C867.501 166.293 868.601 167.004 869.719 167.546C870.87 168.087 872.191 168.358 873.681 168.358C875.307 168.358 876.526 167.986 877.339 167.241C878.152 166.496 878.558 165.581 878.558 164.498C878.558 163.854 878.389 163.295 878.05 162.821C877.711 162.347 877.271 161.941 876.729 161.602C876.221 161.229 875.629 160.908 874.951 160.637C874.274 160.366 873.597 160.095 872.919 159.824C872.039 159.519 871.158 159.181 870.278 158.808C869.397 158.402 868.601 157.927 867.89 157.386C867.213 156.81 866.654 156.149 866.214 155.404C865.773 154.659 865.553 153.762 865.553 152.712C865.553 151.73 865.74 150.815 866.112 149.969C866.519 149.088 867.077 148.343 867.789 147.734C868.534 147.09 869.431 146.599 870.481 146.26C871.531 145.888 872.716 145.702 874.037 145.702C875.595 145.702 877.017 145.973 878.304 146.514C879.625 147.056 880.759 147.717 881.708 148.496L879.727 151.137C878.88 150.494 877.999 149.969 877.085 149.562C876.171 149.156 875.171 148.953 874.088 148.953C872.53 148.953 871.378 149.308 870.633 150.02C869.922 150.731 869.567 151.561 869.567 152.509C869.567 153.085 869.719 153.593 870.024 154.033C870.329 154.439 870.735 154.812 871.243 155.15C871.751 155.455 872.327 155.743 872.97 156.014C873.647 156.251 874.342 156.505 875.053 156.776C875.933 157.115 876.814 157.47 877.695 157.843C878.609 158.215 879.422 158.689 880.133 159.265C880.844 159.807 881.42 160.484 881.86 161.297C882.334 162.11 882.571 163.092 882.571 164.244C882.571 165.26 882.368 166.208 881.962 167.088C881.589 167.969 881.013 168.748 880.235 169.425C879.489 170.103 878.541 170.627 877.39 171C876.272 171.406 874.985 171.61 873.529 171.61ZM898.53 171V146.311H902.695V171H898.53ZM900.663 141.231C899.85 141.231 899.156 140.977 898.58 140.469C898.039 139.961 897.768 139.318 897.768 138.539C897.768 137.726 898.039 137.083 898.58 136.608C899.156 136.1 899.85 135.846 900.663 135.846C901.476 135.846 902.153 136.1 902.695 136.608C903.271 137.083 903.559 137.726 903.559 138.539C903.559 139.318 903.271 139.961 902.695 140.469C902.153 140.977 901.476 141.231 900.663 141.231ZM911.031 171V146.311H914.486L914.841 149.867H914.994C916.179 148.682 917.415 147.7 918.702 146.921C920.023 146.108 921.547 145.702 923.274 145.702C925.882 145.702 927.778 146.514 928.964 148.14C930.183 149.766 930.792 152.17 930.792 155.354V171H926.627V155.912C926.627 153.576 926.254 151.899 925.509 150.883C924.764 149.833 923.579 149.308 921.953 149.308C920.666 149.308 919.532 149.63 918.55 150.274C917.567 150.917 916.45 151.865 915.197 153.118V171H911.031ZM958.99 171.61C957.331 171.61 955.773 171.322 954.316 170.746C952.894 170.136 951.641 169.29 950.557 168.206C949.507 167.088 948.678 165.734 948.068 164.142C947.458 162.55 947.154 160.738 947.154 158.706C947.154 156.674 947.458 154.863 948.068 153.271C948.711 151.645 949.541 150.274 950.557 149.156C951.607 148.038 952.792 147.192 954.113 146.616C955.434 146.006 956.806 145.702 958.228 145.702C959.786 145.702 961.174 145.973 962.394 146.514C963.647 147.056 964.68 147.835 965.492 148.851C966.339 149.867 966.983 151.086 967.423 152.509C967.863 153.931 968.083 155.523 968.083 157.284C968.083 157.724 968.066 158.165 968.032 158.605C968.032 159.011 967.999 159.367 967.931 159.672H951.268C951.438 162.313 952.251 164.413 953.707 165.971C955.197 167.495 957.127 168.257 959.498 168.257C960.683 168.257 961.767 168.087 962.749 167.749C963.765 167.376 964.73 166.902 965.645 166.326L967.118 169.07C966.034 169.747 964.832 170.34 963.511 170.848C962.19 171.356 960.683 171.61 958.99 171.61ZM951.218 156.674H964.426C964.426 154.168 963.884 152.272 962.8 150.985C961.75 149.664 960.26 149.004 958.33 149.004C957.449 149.004 956.602 149.173 955.79 149.512C955.011 149.85 954.299 150.358 953.656 151.036C953.013 151.679 952.471 152.475 952.03 153.423C951.624 154.371 951.353 155.455 951.218 156.674ZM981.398 171.61C978.756 171.61 976.826 170.797 975.606 169.171C974.421 167.546 973.828 165.141 973.828 161.958V146.311H978.045V161.399C978.045 163.736 978.4 165.429 979.112 166.479C979.857 167.495 981.042 168.003 982.668 168.003C983.955 168.003 985.089 167.681 986.071 167.038C987.053 166.36 988.137 165.293 989.322 163.837V146.311H993.488V171H990.034L989.678 167.139H989.526C988.374 168.494 987.155 169.578 985.868 170.39C984.615 171.203 983.125 171.61 981.398 171.61ZM1001.82 171V146.311H1005.27L1005.63 150.782H1005.78C1006.63 149.224 1007.64 147.988 1008.83 147.073C1010.05 146.159 1011.37 145.702 1012.79 145.702C1013.77 145.702 1014.65 145.871 1015.43 146.21L1014.62 149.867C1014.21 149.732 1013.84 149.63 1013.5 149.562C1013.16 149.495 1012.74 149.461 1012.23 149.461C1011.18 149.461 1010.08 149.884 1008.93 150.731C1007.81 151.577 1006.83 153.051 1005.98 155.15V171H1001.82ZM1028.53 171.61C1027.01 171.61 1025.55 171.322 1024.16 170.746C1022.81 170.17 1021.61 169.341 1020.56 168.257C1019.51 167.139 1018.66 165.785 1018.02 164.193C1017.41 162.567 1017.1 160.738 1017.1 158.706C1017.1 156.641 1017.41 154.812 1018.02 153.22C1018.66 151.594 1019.51 150.223 1020.56 149.105C1021.61 147.988 1022.81 147.141 1024.16 146.565C1025.55 145.989 1027.01 145.702 1028.53 145.702C1030.06 145.702 1031.5 145.989 1032.85 146.565C1034.24 147.141 1035.46 147.988 1036.51 149.105C1037.56 150.223 1038.39 151.594 1039 153.22C1039.64 154.812 1039.96 156.641 1039.96 158.706C1039.96 160.738 1039.64 162.567 1039 164.193C1038.39 165.785 1037.56 167.139 1036.51 168.257C1035.46 169.341 1034.24 170.17 1032.85 170.746C1031.5 171.322 1030.06 171.61 1028.53 171.61ZM1028.53 168.155C1029.58 168.155 1030.55 167.935 1031.43 167.495C1032.31 167.021 1033.05 166.377 1033.66 165.564C1034.31 164.718 1034.8 163.719 1035.14 162.567C1035.48 161.416 1035.64 160.129 1035.64 158.706C1035.64 157.284 1035.48 155.997 1035.14 154.846C1034.8 153.66 1034.31 152.644 1033.66 151.798C1033.05 150.951 1032.31 150.307 1031.43 149.867C1030.55 149.393 1029.58 149.156 1028.53 149.156C1027.48 149.156 1026.52 149.393 1025.64 149.867C1024.76 150.307 1023.99 150.951 1023.35 151.798C1022.74 152.644 1022.27 153.66 1021.93 154.846C1021.59 155.997 1021.42 157.284 1021.42 158.706C1021.42 160.129 1021.59 161.416 1021.93 162.567C1022.27 163.719 1022.74 164.718 1023.35 165.564C1023.99 166.377 1024.76 167.021 1025.64 167.495C1026.52 167.935 1027.48 168.155 1028.53 168.155ZM1046.46 181.414V146.311H1049.92L1050.27 149.156H1050.43C1051.54 148.208 1052.76 147.395 1054.08 146.718C1055.44 146.04 1056.84 145.702 1058.3 145.702C1059.89 145.702 1061.3 146.006 1062.52 146.616C1063.74 147.192 1064.75 148.038 1065.57 149.156C1066.38 150.24 1066.99 151.561 1067.39 153.118C1067.83 154.642 1068.05 156.37 1068.05 158.3C1068.05 160.4 1067.77 162.279 1067.19 163.939C1066.62 165.564 1065.84 166.953 1064.85 168.104C1063.87 169.256 1062.74 170.136 1061.45 170.746C1060.16 171.322 1058.81 171.61 1057.39 171.61C1056.24 171.61 1055.08 171.356 1053.93 170.848C1052.81 170.34 1051.68 169.645 1050.53 168.765L1050.63 173.083V181.414H1046.46ZM1056.68 168.104C1057.69 168.104 1058.62 167.884 1059.47 167.444C1060.35 166.97 1061.1 166.326 1061.7 165.514C1062.35 164.667 1062.84 163.634 1063.18 162.415C1063.55 161.196 1063.74 159.824 1063.74 158.3C1063.74 156.945 1063.62 155.709 1063.38 154.592C1063.14 153.474 1062.75 152.526 1062.21 151.747C1061.7 150.934 1061.03 150.307 1060.18 149.867C1059.37 149.427 1058.39 149.207 1057.23 149.207C1056.18 149.207 1055.12 149.495 1054.03 150.07C1052.98 150.646 1051.85 151.476 1050.63 152.56V165.514C1051.75 166.462 1052.83 167.139 1053.88 167.546C1054.93 167.918 1055.86 168.104 1056.68 168.104ZM1084.65 171.61C1082.99 171.61 1081.43 171.322 1079.98 170.746C1078.55 170.136 1077.3 169.29 1076.22 168.206C1075.17 167.088 1074.34 165.734 1073.73 164.142C1073.12 162.55 1072.81 160.738 1072.81 158.706C1072.81 156.674 1073.12 154.863 1073.73 153.271C1074.37 151.645 1075.2 150.274 1076.22 149.156C1077.27 148.038 1078.45 147.192 1079.77 146.616C1081.09 146.006 1082.47 145.702 1083.89 145.702C1085.45 145.702 1086.83 145.973 1088.05 146.514C1089.31 147.056 1090.34 147.835 1091.15 148.851C1092 149.867 1092.64 151.086 1093.08 152.509C1093.52 153.931 1093.74 155.523 1093.74 157.284C1093.74 157.724 1093.73 158.165 1093.69 158.605C1093.69 159.011 1093.66 159.367 1093.59 159.672H1076.93C1077.1 162.313 1077.91 164.413 1079.37 165.971C1080.86 167.495 1082.79 168.257 1085.16 168.257C1086.34 168.257 1087.43 168.087 1088.41 167.749C1089.43 167.376 1090.39 166.902 1091.31 166.326L1092.78 169.07C1091.69 169.747 1090.49 170.34 1089.17 170.848C1087.85 171.356 1086.34 171.61 1084.65 171.61ZM1076.88 156.674H1090.09C1090.09 154.168 1089.54 152.272 1088.46 150.985C1087.41 149.664 1085.92 149.004 1083.99 149.004C1083.11 149.004 1082.26 149.173 1081.45 149.512C1080.67 149.85 1079.96 150.358 1079.32 151.036C1078.67 151.679 1078.13 152.475 1077.69 153.423C1077.28 154.371 1077.01 155.455 1076.88 156.674Z" fill="#515050"/>
</svg>
